<?xml version="1.0" encoding="UTF-8"?>
<!DOCTYPE svg PUBLIC "-//W3C//DTD SVG 1.1//EN" "http://www.w3.org/Graphics/SVG/1.1/DTD/svg11.dtd">
<!-- Creator: CorelDRAW 2019 (64-Bit) -->
<svg xmlns="http://www.w3.org/2000/svg" xml:space="preserve" width="7.75491in" height="3.02768in" version="1.1" style="shape-rendering:geometricPrecision; text-rendering:geometricPrecision; image-rendering:optimizeQuality; fill-rule:evenodd; clip-rule:evenodd"
viewBox="0 0 7081.61 2764.8"
 xmlns:xlink="http://www.w3.org/1999/xlink">
 <defs>
  <style type="text/css">
   <![CDATA[
    .fil0 {fill:#373435}
    .fil1 {fill:#B3C743}
   ]]>
  </style>
 </defs>
 <g id="Layer_x0020_1">
  <metadata id="CorelCorpID_0Corel-Layer"/>
  <g id="_2243147398224">
   <path class="fil0" d="M1214.66 2694.77l0 0 22 0 73.36 0 87.13 -98.15 87.04 98.15 95.26 0 -135.33 -151.04 123.26 -138.76 -92.79 0 -77.37 86.27 -77.34 -86.27 -90.91 0 -1.71 0 -287.82 0 -1.19 0 -310.41 0 0 48.97 116.32 0 0 240.83 0 0 79.52 0 0 -240.83 114.57 0 0 240.83 0 0 276.4 0zm-1214.66 0l0 -289.8 79.54 0 0 128.36 160.28 -128.36 106.59 0 -148.2 112.86 126.81 143.94 135.15 -256.8 84.02 0 157.36 289.8 0 0 -85.67 0 -33.93 -65.97 -157.52 0 -32.64 65.97 -37.68 0 -46.44 0 -56.15 0 -108.06 -136.06 -63.91 48.44 0 87.62 -79.54 0zm6137.73 0l0 0 0 -287.37 79.54 0 0 238.38 196.94 0 0 48.98 -276.48 0zm329.33 0l0 0 79.52 0 0 -240.83 114.36 0 0 240.83 148.92 0c29.25,0 52.57,-2.02 70.04,-6.13 23.31,-5.54 41.88,-13.23 55.6,-23.15 18.19,-13.01 32.16,-30.08 41.96,-51.19 8.04,-17.28 12.07,-37.79 12.07,-61.66 0,-27.11 -4.3,-49.99 -12.81,-68.47 -8.59,-18.55 -21.02,-34.2 -37.5,-46.96 -16.37,-12.81 -36.1,-21.71 -59.04,-26.71 -17.1,-3.71 -41.97,-5.53 -74.61,-5.53l-143.24 0 -1.39 0 0 0 -310.2 0 0 48.97 116.32 0 0 240.83zm273.43 -240.83l0 0 0 191.85 58.96 0c22.03,0 37.94,-0.93 47.73,-2.76 12.88,-2.37 23.48,-6.4 31.89,-12.07 8.5,-5.67 15.35,-14.98 20.66,-27.93 5.4,-12.95 8.04,-30.68 8.04,-53.09 0,-22.41 -2.64,-39.54 -8.04,-51.54 -5.31,-12 -12.79,-21.31 -22.39,-28.05 -9.6,-6.68 -21.76,-11.28 -36.57,-13.63 -10.98,-1.83 -32.64,-2.78 -64.83,-2.78l-35.45 0zm265.96 240.83l0 0 0 -55.44 75.16 0 0 55.44 -75.16 0zm-1676.04 -101.58l0 0 76.79 17.4c-11.79,31.91 -31.44,55.59 -58.86,71.09 -27.46,15.46 -62.19,23.21 -104.34,23.21 -52.21,0 -95.07,-13.16 -128.74,-39.46 -33.54,-26.31 -50.35,-62.26 -50.35,-107.93 0,-48.24 16.9,-85.75 50.63,-112.45 33.74,-26.71 78.19,-40.08 133.23,-40.08 48.09,0 87.12,10.53 117.1,31.5 17.93,12.42 31.28,30.23 40.22,53.5l-78.43 13.77c-4.67,-14.98 -14.36,-26.85 -29.08,-35.56 -14.8,-8.7 -32.73,-13.02 -53.76,-13.02 -29.18,0 -52.86,7.7 -70.97,23.14 -18.18,15.38 -27.24,40.34 -27.24,74.88 0,36.56 8.98,62.66 26.8,78.18 17.92,15.59 41.14,23.33 69.76,23.33 21.11,0 39.3,-4.92 54.5,-14.83 15.18,-9.92 26.14,-25.43 32.72,-46.68zm162.84 -38.26l0 0c0,32.86 10.34,57.76 30.92,74.74 20.55,16.93 46.71,25.43 78.33,25.43 31.75,0 57.71,-8.43 78.09,-25.23 20.29,-16.86 30.45,-42.09 30.45,-75.75 0,-33.25 -9.89,-58.08 -29.72,-74.41 -19.76,-16.39 -45.99,-24.55 -78.82,-24.55 -32.71,0 -59.14,8.29 -79.18,24.83 -20.01,16.6 -30.07,41.56 -30.07,74.94zm-81.73 1.97l0 0c0,-29.55 6.03,-54.38 18,-74.49 8.88,-14.76 21.14,-28.06 36.59,-39.79 15.44,-11.74 32.34,-20.45 50.74,-26.18 24.51,-7.63 52.74,-11.48 84.73,-11.48 57.98,0 104.25,13.3 139.09,39.81 34.74,26.58 52.09,63.49 52.09,110.77 0,46.87 -17.29,83.57 -51.75,110.01 -34.46,26.52 -80.63,39.73 -138.31,39.73 -58.44,0 -104.98,-13.15 -139.44,-39.52 -34.46,-26.32 -51.75,-62.61 -51.75,-108.87zm394.69 143.14l0 0 0 -55.44 75.18 0 0 55.44 -75.18 0zm103.44 -55.44l0 0 75.14 0 0 39.72c0,16.06 -1.84,28.81 -5.58,38.06 -3.75,9.3 -10.88,17.68 -21.31,25.03 -10.42,7.43 -23.68,13.15 -39.69,17.41l-14.61 -23.08c15.08,-3.71 25.76,-8.78 32.17,-15.25 6.3,-6.4 9.69,-15.24 10.07,-26.44l-36.2 0 0 -55.44zm-1873.7 50.17l0 0 0 -289.8 259.76 0 10.13 0 259.42 0 42.03 0 50.93 0 92.89 114.75 90.43 -114.75 91.24 0 -143.98 168.24 0 121.56 -79.54 0 0 0 0 -121.96 -101.99 -118.87 -115.75 0 0 240.83 -79.52 0 0 0 0 -240.83 -106.17 0 -10.13 0 -180.22 0 0 68.81 164.56 0 0 48.97 -164.56 0 0 123.05 -79.54 0zm832.1 0l0 0 75.16 0 0 -55.44 -75.16 0 0 55.44zm-3171.7 0l0 0 0 -289.8 79.54 0 0 128.36 160.28 -128.36 106.59 0 -148.2 112.86 149.51 169.71 0 -282.56 76.96 0 161.63 194.2 0 -194.2 73.51 0 0 289.8 -79.43 0 -159.17 -190.5 0 190.5 -67.13 0 -6.37 0 -96.21 0 -108.05 -136.06 -63.92 48.44 0 87.62 -79.54 0zm347.72 0l0 0zm347.32 0l0 0 0 -289.8 78.54 0 0.99 0 286.75 0 23.85 0 286.77 0 0.98 0 78.56 0 0 289.8 -79.54 0 0 0 0 -240.83 -114.79 0 0 240.83 -79.52 0 0 0 0 -240.83 -92.45 0 -23.85 0 -91.9 0 0 240.83 -79.53 0 0 0 0 -240.83 -115.32 0 0 240.83 -79.54 0zm787.05 0l0 0 0 -289.8 76.98 0 161.63 194.2 0 -194.2 73.5 0 0 289.8 -79.43 0 -159.18 -190.5 0 190.5 -73.51 0zm531.48 -106.45l0 0 0 -48.97 170.59 0 0 115.61c-16.54,11.95 -40.58,22.4 -72.13,31.51 -31.44,9.05 -63.37,13.56 -95.74,13.56 -41.05,0 -76.79,-6.33 -107.34,-19.08 -30.44,-12.76 -53.39,-31.03 -68.74,-54.71 -15.35,-23.68 -23.05,-49.52 -23.05,-77.37 0,-30.22 8.6,-57.07 25.68,-80.62 17.19,-23.48 42.25,-41.55 75.25,-54.09 25.24,-9.65 56.51,-14.45 93.98,-14.45 48.74,0 86.87,7.57 114.29,22.67 27.34,15.18 44.99,36.01 52.86,62.74l-78.99 10.93c-5.5,-14.24 -15.91,-25.5 -31.19,-33.81 -15.18,-8.23 -34.19,-12.35 -57.04,-12.35 -34.56,0 -62.09,8.1 -82.48,24.35 -20.38,16.26 -30.61,40.35 -30.61,72.26 0,34.46 10.31,60.29 30.99,77.49 20.77,17.2 47.81,25.83 81.36,25.83 16.54,0 33.18,-2.42 49.83,-7.2 16.74,-4.8 31,-10.67 42.97,-17.54l0 -36.76 -90.51 0zm-3153.76 -8.5l0 0 -107.6 0 53.03 -107.26 54.57 107.26zm672.83 -172.91l121.26 136.75 -113.58 126.59 0 -24.46 -218.86 0 0 -78.52 196.38 0 0 -48.97 -196.38 0 0 -64.36 211.18 0 0 -47.03z"/>
   <path class="fil0" d="M5275.67 1780.82l663 -691.59 -601.3 -634.78 452.88 0 378.23 394.89 378.21 -394.89 453.79 0 -602.64 635.1 661.66 691.28 -465.86 0 -425.62 -449.23 -426.05 449.23 -466.3 0zm-2130.79 -227.75l0 0 0 -887.11 -497.14 0 497.14 887.11zm-655.52 -1119.12l0 0 0 -0.01 1610.47 0 0 232.02 -566.02 0 0 1140.97 -246.68 0 -142.26 0 -276.64 0 -165.87 -312.57 -770.31 0 -159.6 312.57 -27.29 0 -384.02 0 -117.57 0 -528.46 -644.62 -312.52 229.47 0 415.15 -388.95 0 0 -1372.98 388.95 0 0 608.19 783.73 -608.19 521.29 0 -724.71 534.69 521.85 573.9 602.12 -1108.59 382.48 0zm86.95 828.38l0 0 -266.9 -508.15 -259.31 508.15 526.22 0z"/>
   <path class="fil1" d="M4882.71 0l228.71 244.1c-544.57,248.09 -707.94,910.03 -1198.05,1234.34l-246.87 -257.76c583.3,-236.28 705.52,-1017.1 1216.21,-1220.69z"/>
   <path class="fil1" d="M5162.25 428.39l228.71 244.1c-544.56,248.09 -707.93,910.03 -1198.04,1234.34l-246.87 -257.76c583.3,-236.27 705.52,-1017.09 1216.21,-1220.68z"/>
   <path class="fil1" d="M5449.06 871.31l228.71 244.1c-544.57,248.1 -707.94,910.03 -1198.04,1234.35l-246.87 -257.76c583.3,-236.28 705.52,-1017.1 1216.21,-1220.69z"/>
  </g>
 </g>
</svg>
