<?xml version="1.0" standalone="no"?>
<!DOCTYPE svg PUBLIC "-//W3C//DTD SVG 20010904//EN"
 "http://www.w3.org/TR/2001/REC-SVG-20010904/DTD/svg10.dtd">
<svg version="1.0" xmlns="http://www.w3.org/2000/svg"
 width="260.000000pt" height="260.000000pt" viewBox="0 0 260.000000 260.000000"
 preserveAspectRatio="xMidYMid meet">
<metadata>
Created by potrace 1.11, written by Peter Selinger 2001-2013
</metadata>
<g transform="translate(0.000000,260.000000) scale(0.100000,-0.100000)"
fill="#000000" stroke="none">
<path d="M1503 2587 c-18 -5 -33 -14 -33 -18 0 -5 -6 -9 -13 -9 -7 0 -27 -10
-44 -22 -17 -13 -41 -30 -53 -38 -48 -33 -112 -92 -169 -156 -62 -69 -201
-257 -198 -267 1 -5 -6 -13 -15 -18 -10 -6 -18 -14 -18 -20 0 -5 -4 -15 -10
-22 -36 -45 -79 -107 -72 -107 4 0 2 -4 -3 -8 -6 -4 -19 -20 -29 -37 -11 -16
-23 -34 -28 -40 -5 -5 -36 -48 -70 -95 -35 -47 -67 -91 -73 -99 -16 -21 -208
-214 -230 -231 -54 -41 -90 -64 -164 -103 l-80 -43 75 -79 c42 -44 102 -108
134 -142 52 -55 61 -61 74 -48 8 8 17 15 21 15 24 0 253 217 305 289 14 18 35
43 48 54 12 11 22 26 22 33 0 7 4 14 9 16 12 4 81 96 81 107 0 5 7 11 15 15 8
3 15 12 15 21 0 8 4 15 8 15 4 0 16 14 26 32 11 17 25 39 32 47 48 60 144 194
144 201 0 5 3 10 8 12 4 2 25 25 47 53 96 120 260 285 284 285 6 0 11 4 11 9
0 11 150 107 162 104 4 -2 8 2 8 7 0 6 6 10 14 10 7 0 19 6 25 14 13 15 2 28
-169 206 -63 65 -66 67 -97 57z"/>
<path d="M1827 2119 c-9 -6 -17 -6 -17 -2 0 4 -4 3 -8 -2 -4 -6 -28 -20 -54
-33 -26 -12 -48 -26 -50 -30 -2 -4 -20 -19 -40 -33 -106 -73 -268 -263 -408
-479 -36 -56 -131 -197 -137 -205 -5 -5 -19 -26 -33 -45 -13 -19 -27 -37 -30
-40 -3 -3 -19 -23 -35 -45 -41 -55 -54 -71 -97 -116 -20 -21 -34 -39 -31 -39
2 0 -10 -12 -28 -27 -19 -16 -48 -41 -66 -58 -61 -55 -226 -165 -251 -165 -4
0 -13 -4 -21 -9 -11 -7 0 -24 52 -78 36 -37 97 -101 136 -141 53 -55 74 -70
83 -63 7 6 40 32 73 58 84 66 155 136 228 222 34 40 74 87 90 104 15 18 27 35
27 39 0 3 6 13 13 20 7 7 38 47 67 88 30 41 59 78 65 82 6 5 6 8 0 8 -6 0 -6
3 0 8 6 4 34 40 63 80 29 40 59 80 67 90 7 9 31 40 52 68 154 206 336 370 514
463 l46 24 -66 67 c-36 37 -93 97 -126 133 -49 53 -64 64 -78 56z"/>
<path d="M2120 1624 c-83 -36 -157 -91 -255 -189 -103 -103 -170 -189 -300
-385 -39 -58 -78 -114 -87 -124 -10 -11 -18 -24 -18 -28 0 -11 -156 -218 -212
-282 -24 -27 -61 -66 -82 -85 -22 -20 -51 -47 -66 -61 -50 -47 -142 -107 -232
-152 -21 -10 -38 -22 -38 -27 0 -4 22 -29 50 -55 27 -26 50 -49 50 -51 0 -2
37 -42 83 -89 80 -82 83 -84 104 -68 12 10 36 28 55 42 72 54 265 256 330 345
4 6 20 26 36 45 16 19 46 60 68 91 52 74 156 221 167 234 4 6 28 37 53 70 140
184 221 269 349 370 75 59 105 79 198 128 l37 21 -39 40 c-55 58 -99 105 -158
169 -29 32 -53 57 -55 57 -2 -1 -19 -8 -38 -16z"/>
</g>
</svg>
